G04 This is an RS-274x file exported by *
G04 gerbv version 2.6.0 *
G04 More information is available about gerbv at *
G04 http://gerbv.gpleda.org/ *
G04 --End of header info--*
%MOIN*%
%FSLAX34Y34*%
%IPPOS*%
G04 --Define apertures--*
%ADD10C,0.0039*%
%ADD11C,0.0059*%
%ADD12C,0.0047*%
G04 --Start main section--*
G54D11*
G01X0060424Y-044314D02*
G01X0060405Y-044333D01*
G01X0060405Y-044333D02*
G01X0060349Y-044351D01*
G01X0060349Y-044351D02*
G01X0060311Y-044351D01*
G01X0060311Y-044351D02*
G01X0060255Y-044333D01*
G01X0060255Y-044333D02*
G01X0060217Y-044295D01*
G01X0060217Y-044295D02*
G01X0060199Y-044258D01*
G01X0060199Y-044258D02*
G01X0060180Y-044183D01*
G01X0060180Y-044183D02*
G01X0060180Y-044126D01*
G01X0060180Y-044126D02*
G01X0060199Y-044051D01*
G01X0060199Y-044051D02*
G01X0060217Y-044014D01*
G01X0060217Y-044014D02*
G01X0060255Y-043976D01*
G01X0060255Y-043976D02*
G01X0060311Y-043958D01*
G01X0060311Y-043958D02*
G01X0060349Y-043958D01*
G01X0060349Y-043958D02*
G01X0060405Y-043976D01*
G01X0060405Y-043976D02*
G01X0060424Y-043995D01*
G01X0060761Y-043958D02*
G01X0060686Y-043958D01*
G01X0060686Y-043958D02*
G01X0060649Y-043976D01*
G01X0060649Y-043976D02*
G01X0060630Y-043995D01*
G01X0060630Y-043995D02*
G01X0060592Y-044051D01*
G01X0060592Y-044051D02*
G01X0060574Y-044126D01*
G01X0060574Y-044126D02*
G01X0060574Y-044276D01*
G01X0060574Y-044276D02*
G01X0060592Y-044314D01*
G01X0060592Y-044314D02*
G01X0060611Y-044333D01*
G01X0060611Y-044333D02*
G01X0060649Y-044351D01*
G01X0060649Y-044351D02*
G01X0060724Y-044351D01*
G01X0060724Y-044351D02*
G01X0060761Y-044333D01*
G01X0060761Y-044333D02*
G01X0060780Y-044314D01*
G01X0060780Y-044314D02*
G01X0060799Y-044276D01*
G01X0060799Y-044276D02*
G01X0060799Y-044183D01*
G01X0060799Y-044183D02*
G01X0060780Y-044145D01*
G01X0060780Y-044145D02*
G01X0060761Y-044126D01*
G01X0060761Y-044126D02*
G01X0060724Y-044108D01*
G01X0060724Y-044108D02*
G01X0060649Y-044108D01*
G01X0060649Y-044108D02*
G01X0060611Y-044126D01*
G01X0060611Y-044126D02*
G01X0060592Y-044145D01*
G01X0060592Y-044145D02*
G01X0060574Y-044183D01*
G01X0061136Y-044089D02*
G01X0061136Y-044351D01*
G01X0061042Y-043939D02*
G01X0060949Y-044220D01*
G01X0060949Y-044220D02*
G01X0061192Y-044220D01*
G01X0061642Y-044351D02*
G01X0061642Y-043958D01*
G01X0061642Y-043958D02*
G01X0061792Y-043958D01*
G01X0061792Y-043958D02*
G01X0061830Y-043976D01*
G01X0061830Y-043976D02*
G01X0061849Y-043995D01*
G01X0061849Y-043995D02*
G01X0061867Y-044033D01*
G01X0061867Y-044033D02*
G01X0061867Y-044089D01*
G01X0061867Y-044089D02*
G01X0061849Y-044126D01*
G01X0061849Y-044126D02*
G01X0061830Y-044145D01*
G01X0061830Y-044145D02*
G01X0061792Y-044164D01*
G01X0061792Y-044164D02*
G01X0061642Y-044164D01*
G01X0062017Y-044333D02*
G01X0062073Y-044351D01*
G01X0062073Y-044351D02*
G01X0062167Y-044351D01*
G01X0062167Y-044351D02*
G01X0062205Y-044333D01*
G01X0062205Y-044333D02*
G01X0062223Y-044314D01*
G01X0062223Y-044314D02*
G01X0062242Y-044276D01*
G01X0062242Y-044276D02*
G01X0062242Y-044239D01*
G01X0062242Y-044239D02*
G01X0062223Y-044201D01*
G01X0062223Y-044201D02*
G01X0062205Y-044183D01*
G01X0062205Y-044183D02*
G01X0062167Y-044164D01*
G01X0062167Y-044164D02*
G01X0062092Y-044145D01*
G01X0062092Y-044145D02*
G01X0062055Y-044126D01*
G01X0062055Y-044126D02*
G01X0062036Y-044108D01*
G01X0062036Y-044108D02*
G01X0062017Y-044070D01*
G01X0062017Y-044070D02*
G01X0062017Y-044033D01*
G01X0062017Y-044033D02*
G01X0062036Y-043995D01*
G01X0062036Y-043995D02*
G01X0062055Y-043976D01*
G01X0062055Y-043976D02*
G01X0062092Y-043958D01*
G01X0062092Y-043958D02*
G01X0062186Y-043958D01*
G01X0062186Y-043958D02*
G01X0062242Y-043976D01*
G01X0062411Y-043958D02*
G01X0062411Y-044276D01*
G01X0062411Y-044276D02*
G01X0062430Y-044314D01*
G01X0062430Y-044314D02*
G01X0062448Y-044333D01*
G01X0062448Y-044333D02*
G01X0062486Y-044351D01*
G01X0062486Y-044351D02*
G01X0062561Y-044351D01*
G01X0062561Y-044351D02*
G01X0062598Y-044333D01*
G01X0062598Y-044333D02*
G01X0062617Y-044314D01*
G01X0062617Y-044314D02*
G01X0062636Y-044276D01*
G01X0062636Y-044276D02*
G01X0062636Y-043958D01*
G01X0059149Y-044903D02*
G01X0059149Y-044640D01*
G01X0059149Y-044509D02*
G01X0059130Y-044528D01*
G01X0059130Y-044528D02*
G01X0059149Y-044546D01*
G01X0059149Y-044546D02*
G01X0059168Y-044528D01*
G01X0059168Y-044528D02*
G01X0059149Y-044509D01*
G01X0059149Y-044509D02*
G01X0059149Y-044546D01*
G01X0059336Y-044640D02*
G01X0059336Y-044903D01*
G01X0059336Y-044678D02*
G01X0059355Y-044659D01*
G01X0059355Y-044659D02*
G01X0059393Y-044640D01*
G01X0059393Y-044640D02*
G01X0059449Y-044640D01*
G01X0059449Y-044640D02*
G01X0059486Y-044659D01*
G01X0059486Y-044659D02*
G01X0059505Y-044696D01*
G01X0059505Y-044696D02*
G01X0059505Y-044903D01*
G01X0059693Y-044903D02*
G01X0059693Y-044509D01*
G01X0059730Y-044753D02*
G01X0059843Y-044903D01*
G01X0059843Y-044640D02*
G01X0059693Y-044790D01*
G01X0059993Y-044884D02*
G01X0060030Y-044903D01*
G01X0060030Y-044903D02*
G01X0060105Y-044903D01*
G01X0060105Y-044903D02*
G01X0060142Y-044884D01*
G01X0060142Y-044884D02*
G01X0060161Y-044846D01*
G01X0060161Y-044846D02*
G01X0060161Y-044828D01*
G01X0060161Y-044828D02*
G01X0060142Y-044790D01*
G01X0060142Y-044790D02*
G01X0060105Y-044771D01*
G01X0060105Y-044771D02*
G01X0060049Y-044771D01*
G01X0060049Y-044771D02*
G01X0060011Y-044753D01*
G01X0060011Y-044753D02*
G01X0059993Y-044715D01*
G01X0059993Y-044715D02*
G01X0059993Y-044696D01*
G01X0059993Y-044696D02*
G01X0060011Y-044659D01*
G01X0060011Y-044659D02*
G01X0060049Y-044640D01*
G01X0060049Y-044640D02*
G01X0060105Y-044640D01*
G01X0060105Y-044640D02*
G01X0060142Y-044659D01*
G01X0060274Y-044640D02*
G01X0060424Y-044640D01*
G01X0060330Y-044509D02*
G01X0060330Y-044846D01*
G01X0060330Y-044846D02*
G01X0060349Y-044884D01*
G01X0060349Y-044884D02*
G01X0060386Y-044903D01*
G01X0060386Y-044903D02*
G01X0060424Y-044903D01*
G01X0060555Y-044903D02*
G01X0060555Y-044640D01*
G01X0060555Y-044715D02*
G01X0060574Y-044678D01*
G01X0060574Y-044678D02*
G01X0060592Y-044659D01*
G01X0060592Y-044659D02*
G01X0060630Y-044640D01*
G01X0060630Y-044640D02*
G01X0060667Y-044640D01*
G01X0060799Y-044903D02*
G01X0060799Y-044640D01*
G01X0060799Y-044509D02*
G01X0060780Y-044528D01*
G01X0060780Y-044528D02*
G01X0060799Y-044546D01*
G01X0060799Y-044546D02*
G01X0060817Y-044528D01*
G01X0060817Y-044528D02*
G01X0060799Y-044509D01*
G01X0060799Y-044509D02*
G01X0060799Y-044546D01*
G01X0060986Y-044640D02*
G01X0060986Y-045034D01*
G01X0060986Y-044659D02*
G01X0061024Y-044640D01*
G01X0061024Y-044640D02*
G01X0061099Y-044640D01*
G01X0061099Y-044640D02*
G01X0061136Y-044659D01*
G01X0061136Y-044659D02*
G01X0061155Y-044678D01*
G01X0061155Y-044678D02*
G01X0061174Y-044715D01*
G01X0061174Y-044715D02*
G01X0061174Y-044828D01*
G01X0061174Y-044828D02*
G01X0061155Y-044865D01*
G01X0061155Y-044865D02*
G01X0061136Y-044884D01*
G01X0061136Y-044884D02*
G01X0061099Y-044903D01*
G01X0061099Y-044903D02*
G01X0061024Y-044903D01*
G01X0061024Y-044903D02*
G01X0060986Y-044884D01*
G01X0061492Y-044884D02*
G01X0061455Y-044903D01*
G01X0061455Y-044903D02*
G01X0061380Y-044903D01*
G01X0061380Y-044903D02*
G01X0061342Y-044884D01*
G01X0061342Y-044884D02*
G01X0061324Y-044846D01*
G01X0061324Y-044846D02*
G01X0061324Y-044696D01*
G01X0061324Y-044696D02*
G01X0061342Y-044659D01*
G01X0061342Y-044659D02*
G01X0061380Y-044640D01*
G01X0061380Y-044640D02*
G01X0061455Y-044640D01*
G01X0061455Y-044640D02*
G01X0061492Y-044659D01*
G01X0061492Y-044659D02*
G01X0061511Y-044696D01*
G01X0061511Y-044696D02*
G01X0061511Y-044734D01*
G01X0061511Y-044734D02*
G01X0061324Y-044771D01*
G01X0061680Y-044865D02*
G01X0061699Y-044884D01*
G01X0061699Y-044884D02*
G01X0061680Y-044903D01*
G01X0061680Y-044903D02*
G01X0061661Y-044884D01*
G01X0061661Y-044884D02*
G01X0061680Y-044865D01*
G01X0061680Y-044865D02*
G01X0061680Y-044903D01*
G01X0062036Y-044884D02*
G01X0061999Y-044903D01*
G01X0061999Y-044903D02*
G01X0061924Y-044903D01*
G01X0061924Y-044903D02*
G01X0061886Y-044884D01*
G01X0061886Y-044884D02*
G01X0061867Y-044865D01*
G01X0061867Y-044865D02*
G01X0061849Y-044828D01*
G01X0061849Y-044828D02*
G01X0061849Y-044715D01*
G01X0061849Y-044715D02*
G01X0061867Y-044678D01*
G01X0061867Y-044678D02*
G01X0061886Y-044659D01*
G01X0061886Y-044659D02*
G01X0061924Y-044640D01*
G01X0061924Y-044640D02*
G01X0061999Y-044640D01*
G01X0061999Y-044640D02*
G01X0062036Y-044659D01*
G01X0062261Y-044903D02*
G01X0062223Y-044884D01*
G01X0062223Y-044884D02*
G01X0062205Y-044865D01*
G01X0062205Y-044865D02*
G01X0062186Y-044828D01*
G01X0062186Y-044828D02*
G01X0062186Y-044715D01*
G01X0062186Y-044715D02*
G01X0062205Y-044678D01*
G01X0062205Y-044678D02*
G01X0062223Y-044659D01*
G01X0062223Y-044659D02*
G01X0062261Y-044640D01*
G01X0062261Y-044640D02*
G01X0062317Y-044640D01*
G01X0062317Y-044640D02*
G01X0062355Y-044659D01*
G01X0062355Y-044659D02*
G01X0062373Y-044678D01*
G01X0062373Y-044678D02*
G01X0062392Y-044715D01*
G01X0062392Y-044715D02*
G01X0062392Y-044828D01*
G01X0062392Y-044828D02*
G01X0062373Y-044865D01*
G01X0062373Y-044865D02*
G01X0062355Y-044884D01*
G01X0062355Y-044884D02*
G01X0062317Y-044903D01*
G01X0062317Y-044903D02*
G01X0062261Y-044903D01*
G01X0062561Y-044903D02*
G01X0062561Y-044640D01*
G01X0062561Y-044678D02*
G01X0062580Y-044659D01*
G01X0062580Y-044659D02*
G01X0062617Y-044640D01*
G01X0062617Y-044640D02*
G01X0062673Y-044640D01*
G01X0062673Y-044640D02*
G01X0062711Y-044659D01*
G01X0062711Y-044659D02*
G01X0062730Y-044696D01*
G01X0062730Y-044696D02*
G01X0062730Y-044903D01*
G01X0062730Y-044696D02*
G01X0062748Y-044659D01*
G01X0062748Y-044659D02*
G01X0062786Y-044640D01*
G01X0062786Y-044640D02*
G01X0062842Y-044640D01*
G01X0062842Y-044640D02*
G01X0062880Y-044659D01*
G01X0062880Y-044659D02*
G01X0062898Y-044696D01*
G01X0062898Y-044696D02*
G01X0062898Y-044903D01*
G54D10*
G01X0049951Y-041034D02*
G01X0049886Y-040940D01*
G01X0049839Y-041034D02*
G01X0049839Y-040837D01*
G01X0049839Y-040837D02*
G01X0049914Y-040837D01*
G01X0049914Y-040837D02*
G01X0049933Y-040846D01*
G01X0049933Y-040846D02*
G01X0049942Y-040856D01*
G01X0049942Y-040856D02*
G01X0049951Y-040875D01*
G01X0049951Y-040875D02*
G01X0049951Y-040903D01*
G01X0049951Y-040903D02*
G01X0049942Y-040921D01*
G01X0049942Y-040921D02*
G01X0049933Y-040931D01*
G01X0049933Y-040931D02*
G01X0049914Y-040940D01*
G01X0049914Y-040940D02*
G01X0049839Y-040940D01*
G01X0050036Y-040931D02*
G01X0050101Y-040931D01*
G01X0050129Y-041034D02*
G01X0050036Y-041034D01*
G01X0050036Y-041034D02*
G01X0050036Y-040837D01*
G01X0050036Y-040837D02*
G01X0050129Y-040837D01*
G01X0050186Y-040837D02*
G01X0050251Y-041034D01*
G01X0050251Y-041034D02*
G01X0050317Y-040837D01*
G01X0050486Y-041034D02*
G01X0050373Y-041034D01*
G01X0050429Y-041034D02*
G01X0050429Y-040837D01*
G01X0050429Y-040837D02*
G01X0050411Y-040865D01*
G01X0050411Y-040865D02*
G01X0050392Y-040884D01*
G01X0050392Y-040884D02*
G01X0050373Y-040893D01*
G54D11*
G01X0061117Y-040945D02*
G01X0061080Y-040926D01*
G01X0061080Y-040926D02*
G01X0061024Y-040926D01*
G01X0061024Y-040926D02*
G01X0060967Y-040945D01*
G01X0060967Y-040945D02*
G01X0060930Y-040982D01*
G01X0060930Y-040982D02*
G01X0060911Y-041020D01*
G01X0060911Y-041020D02*
G01X0060892Y-041095D01*
G01X0060892Y-041095D02*
G01X0060892Y-041151D01*
G01X0060892Y-041151D02*
G01X0060911Y-041226D01*
G01X0060911Y-041226D02*
G01X0060930Y-041264D01*
G01X0060930Y-041264D02*
G01X0060967Y-041301D01*
G01X0060967Y-041301D02*
G01X0061024Y-041320D01*
G01X0061024Y-041320D02*
G01X0061061Y-041320D01*
G01X0061061Y-041320D02*
G01X0061117Y-041301D01*
G01X0061117Y-041301D02*
G01X0061136Y-041282D01*
G01X0061136Y-041282D02*
G01X0061136Y-041151D01*
G01X0061136Y-041151D02*
G01X0061061Y-041151D01*
G01X0061305Y-041320D02*
G01X0061305Y-040926D01*
G01X0061305Y-040926D02*
G01X0061530Y-041320D01*
G01X0061530Y-041320D02*
G01X0061530Y-040926D01*
G01X0061717Y-041320D02*
G01X0061717Y-040926D01*
G01X0061717Y-040926D02*
G01X0061811Y-040926D01*
G01X0061811Y-040926D02*
G01X0061867Y-040945D01*
G01X0061867Y-040945D02*
G01X0061905Y-040982D01*
G01X0061905Y-040982D02*
G01X0061924Y-041020D01*
G01X0061924Y-041020D02*
G01X0061942Y-041095D01*
G01X0061942Y-041095D02*
G01X0061942Y-041151D01*
G01X0061942Y-041151D02*
G01X0061924Y-041226D01*
G01X0061924Y-041226D02*
G01X0061905Y-041264D01*
G01X0061905Y-041264D02*
G01X0061867Y-041301D01*
G01X0061867Y-041301D02*
G01X0061811Y-041320D01*
G01X0061811Y-041320D02*
G01X0061717Y-041320D01*
G01X0061174Y-042304D02*
G01X0060949Y-042304D01*
G01X0061061Y-042304D02*
G01X0061061Y-041910D01*
G01X0061061Y-041910D02*
G01X0061024Y-041967D01*
G01X0061024Y-041967D02*
G01X0060986Y-042004D01*
G01X0060986Y-042004D02*
G01X0060949Y-042023D01*
G01X0061417Y-041910D02*
G01X0061455Y-041910D01*
G01X0061455Y-041910D02*
G01X0061492Y-041929D01*
G01X0061492Y-041929D02*
G01X0061511Y-041948D01*
G01X0061511Y-041948D02*
G01X0061530Y-041985D01*
G01X0061530Y-041985D02*
G01X0061549Y-042060D01*
G01X0061549Y-042060D02*
G01X0061549Y-042154D01*
G01X0061549Y-042154D02*
G01X0061530Y-042229D01*
G01X0061530Y-042229D02*
G01X0061511Y-042267D01*
G01X0061511Y-042267D02*
G01X0061492Y-042285D01*
G01X0061492Y-042285D02*
G01X0061455Y-042304D01*
G01X0061455Y-042304D02*
G01X0061417Y-042304D01*
G01X0061417Y-042304D02*
G01X0061380Y-042285D01*
G01X0061380Y-042285D02*
G01X0061361Y-042267D01*
G01X0061361Y-042267D02*
G01X0061342Y-042229D01*
G01X0061342Y-042229D02*
G01X0061324Y-042154D01*
G01X0061324Y-042154D02*
G01X0061324Y-042060D01*
G01X0061324Y-042060D02*
G01X0061342Y-041985D01*
G01X0061342Y-041985D02*
G01X0061361Y-041948D01*
G01X0061361Y-041948D02*
G01X0061380Y-041929D01*
G01X0061380Y-041929D02*
G01X0061417Y-041910D01*
G01X0061661Y-041910D02*
G01X0061792Y-042304D01*
G01X0061792Y-042304D02*
G01X0061924Y-041910D01*
G01X0061342Y-043091D02*
G01X0061155Y-043091D01*
G01X0061155Y-043091D02*
G01X0061136Y-043279D01*
G01X0061136Y-043279D02*
G01X0061155Y-043260D01*
G01X0061155Y-043260D02*
G01X0061192Y-043241D01*
G01X0061192Y-043241D02*
G01X0061286Y-043241D01*
G01X0061286Y-043241D02*
G01X0061324Y-043260D01*
G01X0061324Y-043260D02*
G01X0061342Y-043279D01*
G01X0061342Y-043279D02*
G01X0061361Y-043316D01*
G01X0061361Y-043316D02*
G01X0061361Y-043410D01*
G01X0061361Y-043410D02*
G01X0061342Y-043448D01*
G01X0061342Y-043448D02*
G01X0061324Y-043466D01*
G01X0061324Y-043466D02*
G01X0061286Y-043485D01*
G01X0061286Y-043485D02*
G01X0061192Y-043485D01*
G01X0061192Y-043485D02*
G01X0061155Y-043466D01*
G01X0061155Y-043466D02*
G01X0061136Y-043448D01*
G01X0061474Y-043091D02*
G01X0061605Y-043485D01*
G01X0061605Y-043485D02*
G01X0061736Y-043091D01*
G01X0055974Y-044881D02*
G01X0055974Y-041733D01*
G01X0055919Y-044880D02*
G01X0055919Y-041735D01*
G01X0055864Y-044876D02*
G01X0055864Y-041739D01*
G01X0055809Y-044870D02*
G01X0055809Y-041744D01*
G01X0055754Y-044862D02*
G01X0055754Y-041752D01*
G01X0055699Y-044852D02*
G01X0055699Y-043394D01*
G01X0055699Y-043220D02*
G01X0055699Y-041762D01*
G01X0055644Y-044840D02*
G01X0055644Y-043524D01*
G01X0055644Y-043091D02*
G01X0055644Y-041774D01*
G01X0055589Y-044826D02*
G01X0055589Y-043590D01*
G01X0055589Y-043024D02*
G01X0055589Y-041788D01*
G01X0055533Y-044810D02*
G01X0055533Y-043635D01*
G01X0055533Y-042980D02*
G01X0055533Y-041804D01*
G01X0055478Y-044792D02*
G01X0055478Y-043665D01*
G01X0055478Y-042949D02*
G01X0055478Y-041822D01*
G01X0055423Y-044771D02*
G01X0055423Y-043685D01*
G01X0055423Y-042929D02*
G01X0055423Y-041843D01*
G01X0055368Y-044748D02*
G01X0055368Y-043697D01*
G01X0055368Y-042917D02*
G01X0055368Y-041867D01*
G01X0055313Y-044722D02*
G01X0055313Y-043701D01*
G01X0055313Y-042913D02*
G01X0055313Y-041892D01*
G01X0055258Y-044694D02*
G01X0055258Y-043696D01*
G01X0055258Y-042918D02*
G01X0055258Y-041920D01*
G01X0055203Y-044663D02*
G01X0055203Y-043685D01*
G01X0055203Y-042930D02*
G01X0055203Y-041951D01*
G01X0055148Y-044629D02*
G01X0055148Y-043663D01*
G01X0055148Y-042951D02*
G01X0055148Y-041985D01*
G01X0055093Y-044591D02*
G01X0055093Y-043632D01*
G01X0055093Y-042982D02*
G01X0055093Y-042023D01*
G01X0055037Y-044550D02*
G01X0055037Y-043586D01*
G01X0055037Y-043028D02*
G01X0055037Y-042064D01*
G01X0054982Y-044506D02*
G01X0054982Y-043518D01*
G01X0054982Y-043096D02*
G01X0054982Y-042109D01*
G01X0054927Y-044456D02*
G01X0054927Y-043375D01*
G01X0054927Y-043239D02*
G01X0054927Y-042158D01*
G01X0054872Y-044402D02*
G01X0054872Y-042212D01*
G01X0054817Y-044342D02*
G01X0054817Y-042272D01*
G01X0054762Y-044275D02*
G01X0054762Y-042339D01*
G01X0054707Y-044200D02*
G01X0054707Y-042414D01*
G01X0054652Y-044114D02*
G01X0054652Y-042500D01*
G01X0054596Y-044013D02*
G01X0054596Y-042601D01*
G01X0054541Y-043891D02*
G01X0054541Y-042723D01*
G01X0054486Y-043727D02*
G01X0054486Y-042887D01*
G01X0054431Y-043386D02*
G01X0054431Y-043228D01*
G01X0055709Y-043307D02*
G75*
G03X0055709Y-043307I-000394J0000000D01*
G01X0057594Y-043307D02*
G75*
G03X0057594Y-043307I-001590J0000000D01*
G01X0052825Y-039242D02*
G01X0052825Y-039262D01*
G01X0054459Y-039242D02*
G01X0054459Y-039299D01*
G01X0054459Y-041270D02*
G01X0054459Y-041213D01*
G01X0052825Y-041270D02*
G01X0052825Y-041213D01*
G01X0052825Y-039242D02*
G01X0054459Y-039242D01*
G01X0052825Y-041270D02*
G01X0054459Y-041270D01*
G01X0052825Y-039262D02*
G01X0052274Y-039262D01*
G01X0052392Y-042972D02*
G01X0052392Y-043445D01*
G01X0051703Y-043445D02*
G01X0051703Y-042972D01*
G01X0048891Y-041299D02*
G01X0048891Y-044724D01*
G01X0051412Y-041299D02*
G01X0051412Y-044724D01*
G01X0051412Y-044724D02*
G01X0048891Y-044724D01*
G01X0049375Y-044724D02*
G01X0049375Y-041299D01*
G01X0048891Y-041299D02*
G01X0051412Y-041299D01*
G01X0056595Y-040325D02*
G01X0059744Y-040325D01*
G01X0056597Y-040270D02*
G01X0059742Y-040270D01*
G01X0056601Y-040215D02*
G01X0059738Y-040215D01*
G01X0056607Y-040159D02*
G01X0059732Y-040159D01*
G01X0056615Y-040104D02*
G01X0059724Y-040104D01*
G01X0056624Y-040049D02*
G01X0058082Y-040049D01*
G01X0058257Y-040049D02*
G01X0059714Y-040049D01*
G01X0056636Y-039994D02*
G01X0057953Y-039994D01*
G01X0058386Y-039994D02*
G01X0059702Y-039994D01*
G01X0056650Y-039939D02*
G01X0057886Y-039939D01*
G01X0058452Y-039939D02*
G01X0059688Y-039939D01*
G01X0056667Y-039884D02*
G01X0057842Y-039884D01*
G01X0058497Y-039884D02*
G01X0059672Y-039884D01*
G01X0056685Y-039829D02*
G01X0057811Y-039829D01*
G01X0058528Y-039829D02*
G01X0059654Y-039829D01*
G01X0056706Y-039774D02*
G01X0057791Y-039774D01*
G01X0058548Y-039774D02*
G01X0059633Y-039774D01*
G01X0056729Y-039719D02*
G01X0057779Y-039719D01*
G01X0058559Y-039719D02*
G01X0059610Y-039719D01*
G01X0056754Y-039663D02*
G01X0057776Y-039663D01*
G01X0058563Y-039663D02*
G01X0059584Y-039663D01*
G01X0056782Y-039608D02*
G01X0057780Y-039608D01*
G01X0058559Y-039608D02*
G01X0059556Y-039608D01*
G01X0056813Y-039553D02*
G01X0057792Y-039553D01*
G01X0058547Y-039553D02*
G01X0059525Y-039553D01*
G01X0056848Y-039498D02*
G01X0057813Y-039498D01*
G01X0058526Y-039498D02*
G01X0059491Y-039498D01*
G01X0056885Y-039443D02*
G01X0057844Y-039443D01*
G01X0058494Y-039443D02*
G01X0059454Y-039443D01*
G01X0056926Y-039388D02*
G01X0057890Y-039388D01*
G01X0058448Y-039388D02*
G01X0059413Y-039388D01*
G01X0056971Y-039333D02*
G01X0057959Y-039333D01*
G01X0058380Y-039333D02*
G01X0059368Y-039333D01*
G01X0057020Y-039278D02*
G01X0058101Y-039278D01*
G01X0058237Y-039278D02*
G01X0059319Y-039278D01*
G01X0057074Y-039222D02*
G01X0059264Y-039222D01*
G01X0057134Y-039167D02*
G01X0059204Y-039167D01*
G01X0057201Y-039112D02*
G01X0059137Y-039112D01*
G01X0057276Y-039057D02*
G01X0059062Y-039057D01*
G01X0057362Y-039002D02*
G01X0058976Y-039002D01*
G01X0057463Y-038947D02*
G01X0058876Y-038947D01*
G01X0057585Y-038892D02*
G01X0058753Y-038892D01*
G01X0057749Y-038837D02*
G01X0058589Y-038837D01*
G01X0058091Y-038781D02*
G01X0058248Y-038781D01*
G01X0058563Y-039665D02*
G75*
G03X0058563Y-039665I-000394J0000000D01*
G01X0059759Y-040354D02*
G75*
G03X0059759Y-040354I-001590J0000000D01*
G54D12*
G01X0060980Y-042626D02*
G01X0060980Y-040579D01*
G01X0060980Y-040579D02*
G01X0059886Y-040579D01*
G01X0059886Y-040579D02*
G01X0059886Y-042626D01*
G01X0059886Y-042626D02*
G01X0060980Y-042626D01*
G01X0060980Y-043126D02*
G01X0060980Y-043673D01*
G01X0060980Y-043673D02*
G01X0060433Y-043673D01*
G54D11*
G01X0054344Y-044786D02*
G01X0054325Y-044805D01*
G01X0054325Y-044805D02*
G01X0054269Y-044824D01*
G01X0054269Y-044824D02*
G01X0054231Y-044824D01*
G01X0054231Y-044824D02*
G01X0054175Y-044805D01*
G01X0054175Y-044805D02*
G01X0054138Y-044768D01*
G01X0054138Y-044768D02*
G01X0054119Y-044730D01*
G01X0054119Y-044730D02*
G01X0054100Y-044655D01*
G01X0054100Y-044655D02*
G01X0054100Y-044599D01*
G01X0054100Y-044599D02*
G01X0054119Y-044524D01*
G01X0054119Y-044524D02*
G01X0054138Y-044486D01*
G01X0054138Y-044486D02*
G01X0054175Y-044449D01*
G01X0054175Y-044449D02*
G01X0054231Y-044430D01*
G01X0054231Y-044430D02*
G01X0054269Y-044430D01*
G01X0054269Y-044430D02*
G01X0054325Y-044449D01*
G01X0054325Y-044449D02*
G01X0054344Y-044468D01*
G01X0054719Y-044824D02*
G01X0054494Y-044824D01*
G01X0054606Y-044824D02*
G01X0054606Y-044430D01*
G01X0054606Y-044430D02*
G01X0054569Y-044486D01*
G01X0054569Y-044486D02*
G01X0054531Y-044524D01*
G01X0054531Y-044524D02*
G01X0054494Y-044543D01*
G01X0060171Y-039904D02*
G01X0060152Y-039923D01*
G01X0060152Y-039923D02*
G01X0060096Y-039942D01*
G01X0060096Y-039942D02*
G01X0060058Y-039942D01*
G01X0060058Y-039942D02*
G01X0060002Y-039923D01*
G01X0060002Y-039923D02*
G01X0059964Y-039886D01*
G01X0059964Y-039886D02*
G01X0059946Y-039848D01*
G01X0059946Y-039848D02*
G01X0059927Y-039773D01*
G01X0059927Y-039773D02*
G01X0059927Y-039717D01*
G01X0059927Y-039717D02*
G01X0059946Y-039642D01*
G01X0059946Y-039642D02*
G01X0059964Y-039604D01*
G01X0059964Y-039604D02*
G01X0060002Y-039567D01*
G01X0060002Y-039567D02*
G01X0060058Y-039548D01*
G01X0060058Y-039548D02*
G01X0060096Y-039548D01*
G01X0060096Y-039548D02*
G01X0060152Y-039567D01*
G01X0060152Y-039567D02*
G01X0060171Y-039586D01*
G01X0060321Y-039586D02*
G01X0060339Y-039567D01*
G01X0060339Y-039567D02*
G01X0060377Y-039548D01*
G01X0060377Y-039548D02*
G01X0060471Y-039548D01*
G01X0060471Y-039548D02*
G01X0060508Y-039567D01*
G01X0060508Y-039567D02*
G01X0060527Y-039586D01*
G01X0060527Y-039586D02*
G01X0060546Y-039623D01*
G01X0060546Y-039623D02*
G01X0060546Y-039661D01*
G01X0060546Y-039661D02*
G01X0060527Y-039717D01*
G01X0060527Y-039717D02*
G01X0060302Y-039942D01*
G01X0060302Y-039942D02*
G01X0060546Y-039942D01*
M02*
