M48
;DRILL file {KiCad (2015-12-22 BZR 6403)-product} date Mon 09 Jan 2017 12:27:39 AM EST
;FORMAT={-:-/ absolute / metric / decimal}
FMAT,2
METRIC,TZ
T1C0.400
T2C0.800
T3C0.850
T4C0.889
T5C1.000
T6C1.700
T7C3.200
%
G90
G05
M71
T1
X135.Y-105.
X136.Y-102.
T2
X140.5Y-110.
X144.Y-110.
X147.75Y-100.75
X147.75Y-104.25
T3
X126.863Y-105.749
X126.863Y-112.749
X129.563Y-106.749
X129.563Y-111.749
T4
X140.443Y-105.443
T5
X153.5Y-104.46
X153.5Y-107.
X153.5Y-109.54
T6
X158.5Y-104.5
X158.5Y-107.
X158.5Y-109.5
T7
X127.4Y-101.
X135.Y-111.2
X149.8Y-111.2
X157.2Y-101.
T0
M30
