G04 #@! TF.FileFunction,Legend,Bot*
%FSLAX46Y46*%
G04 Gerber Fmt 4.6, Leading zero omitted, Abs format (unit mm)*
G04 Created by KiCad (PCBNEW (2015-12-22 BZR 6403)-product) date Mon 09 Jan 2017 12:27:38 AM EST*
%MOMM*%
G01*
G04 APERTURE LIST*
%ADD10C,0.100000*%
%ADD11C,0.300000*%
G04 APERTURE END LIST*
D10*
D11*
X152228571Y-99707143D02*
X151085714Y-99707143D01*
X151657143Y-100278571D02*
X151657143Y-99135714D01*
X149657142Y-98778571D02*
X150371428Y-98778571D01*
X150442857Y-99492857D01*
X150371428Y-99421429D01*
X150228571Y-99350000D01*
X149871428Y-99350000D01*
X149728571Y-99421429D01*
X149657142Y-99492857D01*
X149585714Y-99635714D01*
X149585714Y-99992857D01*
X149657142Y-100135714D01*
X149728571Y-100207143D01*
X149871428Y-100278571D01*
X150228571Y-100278571D01*
X150371428Y-100207143D01*
X150442857Y-100135714D01*
X149157143Y-98778571D02*
X148657143Y-100278571D01*
X148157143Y-98778571D01*
X146085715Y-100850000D02*
X146157143Y-100778571D01*
X146300000Y-100564286D01*
X146371429Y-100421429D01*
X146442858Y-100207143D01*
X146514286Y-99850000D01*
X146514286Y-99564286D01*
X146442858Y-99207143D01*
X146371429Y-98992857D01*
X146300000Y-98850000D01*
X146157143Y-98635714D01*
X146085715Y-98564286D01*
X145585715Y-98921429D02*
X145514286Y-98850000D01*
X145371429Y-98778571D01*
X145014286Y-98778571D01*
X144871429Y-98850000D01*
X144800000Y-98921429D01*
X144728572Y-99064286D01*
X144728572Y-99207143D01*
X144800000Y-99421429D01*
X145657143Y-100278571D01*
X144728572Y-100278571D01*
X144157144Y-99850000D02*
X143442858Y-99850000D01*
X144300001Y-100278571D02*
X143800001Y-98778571D01*
X143300001Y-100278571D01*
X141657144Y-100278571D02*
X141657144Y-98778571D01*
X141157144Y-99850000D01*
X140657144Y-98778571D01*
X140657144Y-100278571D01*
X139942858Y-100278571D02*
X139942858Y-98778571D01*
X139228572Y-100278571D02*
X139228572Y-98778571D01*
X138371429Y-100278571D01*
X138371429Y-98778571D01*
X137800000Y-100850000D02*
X137728572Y-100778571D01*
X137585715Y-100564286D01*
X137514286Y-100421429D01*
X137442857Y-100207143D01*
X137371429Y-99850000D01*
X137371429Y-99564286D01*
X137442857Y-99207143D01*
X137514286Y-98992857D01*
X137585715Y-98850000D01*
X137728572Y-98635714D01*
X137800000Y-98564286D01*
M02*
